<?xml version="1.0" standalone="no"?>
<!DOCTYPE svg PUBLIC "-//W3C//DTD SVG 20010904//EN"
 "http://www.w3.org/TR/2001/REC-SVG-20010904/DTD/svg10.dtd">
<svg version="1.0" xmlns="http://www.w3.org/2000/svg"
 width="348.000000pt" height="348.000000pt" viewBox="0 0 348.000000 348.000000"
 preserveAspectRatio="xMidYMid meet">

<g transform="translate(0.000000,348.000000) scale(0.100000,-0.100000)"
fill="#000000" stroke="none">
<path d="M1515 3464 c-502 -67 -940 -340 -1220 -759 -393 -587 -393 -1343 0
-1930 481 -720 1413 -977 2195 -604 673 321 1071 1049 975 1786 -37 284 -125
518 -283 754 -366 545 -1020 841 -1667 753z m521 -233 c397 -82 742 -312 966
-645 114 -171 198 -376 235 -576 24 -130 24 -409 0 -537 -115 -625 -605 -1115
-1230 -1230 -128 -24 -407 -23 -537 1 -536 99 -987 484 -1164 995 -64 185 -80
280 -80 501 0 164 4 211 22 296 66 306 203 559 419 776 247 249 559 398 923
442 88 11 348 -3 446 -23z"/>
<path d="M1545 2965 c-263 -41 -477 -149 -672 -338 -606 -586 -448 -1598 308
-1977 606 -303 1341 -60 1645 543 273 541 119 1186 -370 1550 -95 70 -272 158
-376 187 -175 48 -372 61 -535 35z m-53 -1065 c76 -21 138 -102 138 -180 0
-51 -32 -113 -75 -146 -75 -57 -211 -40 -263 33 -105 148 27 341 200 293z
m-295 -35 c33 -33 35 -39 30 -81 -8 -74 -39 -98 -132 -102 l-75 -4 0 -69 0
-69 -30 0 -30 0 0 180 0 180 101 0 101 0 35 -35z m643 10 c0 -21 -5 -25 -30
-25 l-30 0 0 -130 0 -130 30 0 c25 0 30 -4 30 -25 0 -25 -1 -25 -90 -25 -89 0
-90 0 -90 25 0 21 5 25 30 25 l30 0 0 130 0 130 -30 0 c-25 0 -30 4 -30 25 0
25 1 25 90 25 89 0 90 0 90 -25z m221 -102 c56 -71 106 -132 111 -138 4 -5 5
53 1 128 l-6 137 31 0 32 0 0 -181 0 -180 -27 3 c-21 2 -51 33 -135 136 l-107
133 2 -133 2 -133 -27 -3 -28 -3 0 180 0 181 25 0 c19 0 45 -26 126 -127z
m489 103 c0 -23 -4 -25 -52 -28 l-53 -3 -3 -152 -3 -153 -24 0 -24 0 -3 153
-3 152 -52 3 c-49 3 -53 5 -53 28 l0 24 135 0 135 0 0 -24z"/>
<path d="M1381 1837 c-88 -45 -85 -196 4 -233 49 -20 87 -17 126 9 69 46 76
142 14 204 -27 27 -40 33 -76 33 -24 0 -55 -6 -68 -13z"/>
<path d="M1020 1790 l0 -60 55 0 c62 0 95 22 95 64 0 36 -35 56 -97 56 l-53 0
0 -60z"/>
</g>
</svg>
