<?xml version="1.0" encoding="utf-8"?>
<svg version="1.1" xmlns="http://www.w3.org/2000/svg" xmlns:xlink="http://www.w3.org/1999/xlink" x="0px" y="0px" viewBox="0 0 677 679" style="enable-background:new 0 0 677 679;" xml:space="preserve">
<path d="M338.9-0.2C151.8-0.2,0.1,151.8,0.1,339.3c0,187.6,151.7,339.6,338.8,339.6s338.8-152,338.8-339.6 C677.7,151.8,526-0.2,338.9-0.2z M338.9,636.1c-163.5,0-296-132.9-296-296.7s132.6-296.7,296-296.7s296,132.8,296,296.7 S502.4,636.1,338.9,636.1z"/>
<path d="M203.1,314.9h-18.6v22.5h18.6v-0.1c1.9,0,3.7-0.5,5.2-1.5c1.6-1.1,2.8-2.4,3.7-4.1c1-1.7,1.5-3.6,1.5-5.7 c0-3.1-1-5.8-3.1-7.9C208.3,316,205.9,314.9,203.1,314.9z"/>
<path d="M290.8,317.4c-3.7-2.3-7.9-3.4-12.8-3.4s-9.2,1.1-13,3.4c-3.7,2.2-6.6,5.3-8.7,9.1c-2.1,3.8-3.1,8.2-3.1,13 c0,4.9,1,9.3,3.1,13.1c2.1,3.8,5,6.9,8.7,9.1c3.8,2.2,8.1,3.3,13,3.3c4.8,0,9.1-1.1,12.8-3.3c3.8-2.3,6.7-5.4,8.8-9.2 c2.1-3.8,3.2-8.2,3.2-13c0-4.9-1.1-9.2-3.2-13C297.5,322.6,294.5,319.6,290.8,317.4z"/>
<path d="M337.1,97.4c-132.4,0-239.7,107.5-239.7,240.1c0,132.7,107.3,240.3,239.7,240.3s239.7-107.6,239.7-240.2 C576.8,204.9,469.5,97.4,337.1,97.4z M222.3,336.9c-2,3.3-4.6,5.9-8,7.8c-3.3,1.9-7,2.9-11,2.9h-18.8v26.9H173v-70.2h30.3v0.1 c4,0,7.6,1,11,2.9c3.3,1.9,6,4.4,8,7.7c2,3.2,3,6.9,3,10.9S224.3,333.6,222.3,336.9z M311.8,353.7c-1.8,4.3-4.3,8.2-7.7,11.4 c-3.3,3.3-7.1,5.9-11.6,7.7c-4.4,1.8-9.3,2.7-14.6,2.7c-5.3,0-10.2-0.9-14.7-2.7c-4.5-1.9-8.3-4.4-11.6-7.7 c-3.3-3.3-5.8-7.1-7.6-11.4c-1.8-4.4-2.7-9.2-2.7-14.2s0.9-9.8,2.7-14.1c1.8-4.4,4.3-8.3,7.6-11.5c3.3-3.3,7.1-5.8,11.6-7.6 c4.5-1.9,9.4-2.8,14.7-2.8c5.3,0,10.2,0.9,14.6,2.8c4.5,1.8,8.3,4.3,11.6,7.6c3.3,3.3,5.9,7.1,7.7,11.5c1.8,4.3,2.7,9,2.7,14.1 S313.6,349.3,311.8,353.7z M344.6,314.4v50.2v10h-11.4v-10v-50.2v-10h11.4V314.4z M427.5,374.6H417l-41.5-51.3v22.1v4.2v25H364 v-70.2h10.3l41.9,52.9V339c-0.1-4-0.2-7.9-0.2-11.5v-23.1h11.5L427.5,374.6L427.5,374.6z M497.6,314.8h-21.5v59.8h-11.5v-59.8h-20.8 v-10.4h53.8V314.8z"/>
</svg>